<svg id="film-svg" xmlns="http://www.w3.org/2000/svg" xmlns:xlink="http://www.w3.org/1999/xlink" viewBox="0 0 64 64"><path d="M31 0C15.007813 0 2 13.007813 2 29C2 44.992188 15.007813 58 31 58C41.554688 58 50.808594 52.328125 55.882813 43.875L55.882813 49.335938C55.882813 53.871094 57.511719 58.269531 60.46875 61.710938L62.183594 63.710938C62.382813 63.941406 62.660156 64.058594 62.941406 64.058594C63.171875 64.058594 63.40625 63.980469 63.59375 63.816406C64.011719 63.457031 64.058594 62.824219 63.699219 62.40625L61.984375 60.40625C59.339844 57.324219 57.882813 53.394531 57.882813 49.335938L57.882813 39.859375C59.242188 36.503906 60 32.839844 60 29C60 13.007813 46.992188 0 31 0 Z M 31 2C39.617188 2 47.296875 6.0625 52.246094 12.363281C52.097656 12.539063 52 12.757813 52 13L52 15C52 15.550781 52.449219 16 53 16C53.550781 16 54 15.550781 54 15L54 14.875C56.535156 18.988281 58 23.824219 58 29C58 43.886719 45.886719 56 31 56C16.113281 56 4 43.886719 4 29C4 23.824219 5.464844 18.988281 8 14.875L8 15C8 15.550781 8.449219 16 9 16C9.550781 16 10 15.550781 10 15L10 13C10 12.757813 9.902344 12.539063 9.757813 12.363281C14.703125 6.0625 22.382813 2 31 2 Z M 31 5C26.589844 5 23 8.589844 23 13C23 17.410156 26.589844 21 31 21C35.410156 21 39 17.410156 39 13C39 8.589844 35.410156 5 31 5 Z M 31 7C34.308594 7 37 9.691406 37 13C37 16.308594 34.308594 19 31 19C27.691406 19 25 16.308594 25 13C25 9.691406 27.691406 7 31 7 Z M 14 12C13.449219 12 13 12.449219 13 13L13 15C13 15.550781 13.449219 16 14 16C14.550781 16 15 15.550781 15 15L15 13C15 12.449219 14.550781 12 14 12 Z M 19 12C18.449219 12 18 12.449219 18 13L18 15C18 15.550781 18.449219 16 19 16C19.550781 16 20 15.550781 20 15L20 13C20 12.449219 19.550781 12 19 12 Z M 43 12C42.449219 12 42 12.449219 42 13L42 15C42 15.550781 42.449219 16 43 16C43.550781 16 44 15.550781 44 15L44 13C44 12.449219 43.550781 12 43 12 Z M 48 12C47.449219 12 47 12.449219 47 13L47 15C47 15.550781 47.449219 16 48 16C48.550781 16 49 15.550781 49 15L49 13C49 12.449219 48.550781 12 48 12 Z M 15 21C10.589844 21 7 24.589844 7 29C7 33.410156 10.589844 37 15 37C19.410156 37 23 33.410156 23 29C23 24.589844 19.410156 21 15 21 Z M 47 21C42.589844 21 39 24.589844 39 29C39 33.410156 42.589844 37 47 37C51.410156 37 55 33.410156 55 29C55 24.589844 51.410156 21 47 21 Z M 15 23C18.308594 23 21 25.691406 21 29C21 32.308594 18.308594 35 15 35C11.691406 35 9 32.308594 9 29C9 25.691406 11.691406 23 15 23 Z M 47 23C50.308594 23 53 25.691406 53 29C53 32.308594 50.308594 35 47 35C43.691406 35 41 32.308594 41 29C41 25.691406 43.691406 23 47 23 Z M 31 27C29.894531 27 29 27.894531 29 29C29 30.105469 29.894531 31 31 31C32.105469 31 33 30.105469 33 29C33 27.894531 32.105469 27 31 27 Z M 31 37C26.589844 37 23 40.589844 23 45C23 49.410156 26.589844 53 31 53C35.410156 53 39 49.410156 39 45C39 40.589844 35.410156 37 31 37 Z M 31 39C34.308594 39 37 41.691406 37 45C37 48.308594 34.308594 51 31 51C27.691406 51 25 48.308594 25 45C25 41.691406 27.691406 39 31 39Z"/></svg>